<svg width="100" height="106" viewBox="0 0 100 106" fill="none" xmlns="http://www.w3.org/2000/svg">
<path d="M96.5377 27.3592L96.5372 27.3583C95.7444 25.9784 94.5843 24.8448 93.186 24.0825L53.7524 2.56524C53.752 2.56503 53.7516 2.56481 53.7512 2.5646C52.4762 1.86609 51.0452 1.5 49.5909 1.5C48.1366 1.5 46.7057 1.86607 45.4307 2.56455C45.4303 2.56478 45.4299 2.56501 45.4294 2.56524L6.00931 24.0781C6.00911 24.0782 6.00891 24.0783 6.00871 24.0784C4.61134 24.8403 3.45196 25.973 2.65933 27.3517C1.90486 28.6563 1.5051 30.1351 1.5 31.6416V31.6467L1.5 74.354L1.5 74.3574C1.50353 75.9062 1.92416 77.4252 2.71758 78.756C3.51098 80.0867 4.64787 81.1801 6.00906 81.9225L45.4267 103.429C45.4273 103.43 45.4279 103.43 45.4285 103.43C46.7032 104.132 48.1353 104.5 49.5909 104.5C51.0465 104.5 52.4786 104.132 53.7533 103.43C53.7539 103.43 53.7545 103.43 53.7551 103.429L93.1727 81.9225C94.5339 81.1801 95.6708 80.0867 96.4642 78.756C97.2577 77.4252 97.6783 75.9062 97.6818 74.3574V74.354V31.6467V31.6456C97.6807 30.1417 97.2863 28.6643 96.5377 27.3592ZM33.1713 63.7174L33.1713 63.7139C33.1693 62.8048 32.9223 61.9132 32.4567 61.1323C31.9912 60.3514 31.3242 59.71 30.5259 59.2747L11.6678 48.9843V38.1126L44.507 56.034V91.3807L33.1713 85.1945L33.1713 63.7174ZM47.143 32.4453L47.1435 32.4456C47.8914 32.8535 48.7299 33.0671 49.5819 33.0671C50.434 33.0671 51.2725 32.8535 52.0204 32.4456L52.0209 32.4453L69.67 22.8126L81.9854 29.5307L49.5907 47.2189L17.1791 29.5303L29.4939 22.8126L47.143 32.4453ZM66.0105 63.705V63.7084V85.1855L54.6748 91.3717V56.0072L87.514 38.0858V48.9753L68.6559 59.2657C67.8577 59.7011 67.1907 60.3425 66.7251 61.1234C66.2595 61.9043 66.0126 62.7959 66.0105 63.705Z" fill="#4FACF7" stroke="#1F1F1F" stroke-width="3"/>
</svg>
